<svg xmlns="http://www.w3.org/2000/svg" viewBox="0 0 48 48">
  <defs>
    <linearGradient id="archive-g" x1="8" y1="10" x2="40" y2="40" gradientUnits="userSpaceOnUse">
      <stop offset="0%" stop-color="#00f5ff"/>
      <stop offset="100%" stop-color="#3b82f6"/>
    </linearGradient>
    <filter id="archive-glow" x="-50%" y="-50%" width="200%" height="200%">
      <feGaussianBlur stdDeviation="2.2" result="b"/>
      <feMerge><feMergeNode in="b"/><feMergeNode in="SourceGraphic"/></feMerge>
    </filter>
  </defs>
  <path fill="#00f5ff" opacity="0.22" d="M8 10h32v6H8z"/>
  <path fill="url(#archive-g)" filter="url(#archive-glow)" d="M10 12h28v4H10z"/>
  <path fill="#2563eb" filter="url(#archive-glow)" d="M12 16h24v22a3 3 0 01-3 3H15a3 3 0 01-3-3V16z"/>
  <path fill="none" stroke="#7dd3fc" stroke-width="1" opacity="0.65" d="M12 16h24v22a3 3 0 01-3 3H15a3 3 0 01-3-3V16z"/>
  <rect x="18" y="22" width="12" height="2.5" rx="1.25" fill="#e0f2fe"/>
  <rect x="18" y="28" width="12" height="2.5" rx="1.25" fill="#7dd3fc"/>
  <rect x="20" y="8" width="8" height="4" rx="1" fill="#00f5ff" filter="url(#archive-glow)"/>
</svg>
