<svg xmlns="http://www.w3.org/2000/svg" viewBox="0 0 48 48">
  <defs>
    <linearGradient id="article-g" x1="10" y1="6" x2="38" y2="42" gradientUnits="userSpaceOnUse">
      <stop offset="0%" stop-color="#a78bfa"/>
      <stop offset="100%" stop-color="#6366f1"/>
    </linearGradient>
    <filter id="article-glow" x="-50%" y="-50%" width="200%" height="200%">
      <feGaussianBlur stdDeviation="2" result="b"/>
      <feMerge><feMergeNode in="b"/><feMergeNode in="SourceGraphic"/></feMerge>
    </filter>
  </defs>
  <path fill="#818cf8" opacity="0.25" d="M12 6h24l4 4v32l-4 4H12l-4-4V10l4-4z"/>
  <path fill="url(#article-g)" filter="url(#article-glow)" d="M14 8h20l2 2v30l-2 2H14l-2-2V10l2-2z"/>
  <path fill="none" stroke="#c4b5fd" stroke-width="1" opacity="0.65" d="M14 8h20l2 2v30l-2 2H14l-2-2V10l2-2z"/>
  <rect x="18" y="16" width="16" height="2.5" rx="1.25" fill="#e9d5ff"/>
  <rect x="18" y="22" width="20" height="2.5" rx="1.25" fill="#c4b5fd"/>
  <rect x="18" y="28" width="14" height="2.5" rx="1.25" fill="#a78bfa"/>
  <rect x="18" y="34" width="10" height="2.5" rx="1.25" fill="#00f5ff" opacity="0.95"/>
</svg>
