<svg xmlns="http://www.w3.org/2000/svg" viewBox="0 0 48 48">
  <defs>
    <linearGradient id="bulb-g" x1="24" y1="6" x2="24" y2="34" gradientUnits="userSpaceOnUse">
      <stop offset="0%" stop-color="#00f5ff"/>
      <stop offset="100%" stop-color="#22d3ee"/>
    </linearGradient>
    <filter id="bulb-glow" x="-50%" y="-50%" width="200%" height="200%">
      <feGaussianBlur stdDeviation="2.8" result="b"/>
      <feMerge><feMergeNode in="b"/><feMergeNode in="SourceGraphic"/></feMerge>
    </filter>
  </defs>
  <path fill="#00f5ff" opacity="0.25" d="M24 6c-8 12-12 18-12 24a12 12 0 0024 0c0-6-4-12-12-24z"/>
  <path fill="url(#bulb-g)" filter="url(#bulb-glow)" d="M24 8c-6.5 10-10 16-10 22a10 10 0 0020 0c0-6-3.5-12-10-22z"/>
  <path fill="none" stroke="#a5f3fc" stroke-width="1" opacity="0.7" d="M24 8c-6.5 10-10 16-10 22a10 10 0 0020 0c0-6-3.5-12-10-22z"/>
  <rect x="18" y="32" width="12" height="3" rx="1.5" fill="#0891b2"/>
  <rect x="19" y="36" width="10" height="3" rx="1.5" fill="#0e7490"/>
  <circle cx="24" cy="17" r="4" fill="#fff" opacity="0.95"/>
</svg>
