<svg xmlns="http://www.w3.org/2000/svg" viewBox="0 0 48 48">
  <defs>
    <filter id="dash-glow" x="-30%" y="-30%" width="160%" height="160%">
      <feGaussianBlur stdDeviation="1.8" result="b"/>
      <feMerge><feMergeNode in="b"/><feMergeNode in="SourceGraphic"/></feMerge>
    </filter>
  </defs>
  <rect x="8" y="8" width="14" height="16" rx="3" fill="#00f5ff" opacity="0.25"/>
  <rect x="8" y="8" width="14" height="16" rx="3" fill="#00f5ff" filter="url(#dash-glow)"/>
  <rect x="26" y="8" width="14" height="10" rx="3" fill="#60a5fa" opacity="0.25"/>
  <rect x="26" y="8" width="14" height="10" rx="3" fill="#60a5fa" filter="url(#dash-glow)"/>
  <rect x="8" y="28" width="14" height="12" rx="3" fill="#818cf8" opacity="0.25"/>
  <rect x="8" y="28" width="14" height="12" rx="3" fill="#818cf8" filter="url(#dash-glow)"/>
  <rect x="26" y="22" width="14" height="18" rx="3" fill="#c084fc" opacity="0.25"/>
  <rect x="26" y="22" width="14" height="18" rx="3" fill="#c084fc" filter="url(#dash-glow)"/>
  <rect x="8" y="8" width="14" height="16" rx="3" fill="none" stroke="#a5f3fc" stroke-width="1" opacity="0.7"/>
  <rect x="26" y="8" width="14" height="10" rx="3" fill="none" stroke="#93c5fd" stroke-width="1" opacity="0.7"/>
  <rect x="8" y="28" width="14" height="12" rx="3" fill="none" stroke="#a5b4fc" stroke-width="1" opacity="0.7"/>
  <rect x="26" y="22" width="14" height="18" rx="3" fill="none" stroke="#e9d5ff" stroke-width="1" opacity="0.7"/>
  <rect x="10" y="10" width="6" height="2" rx="1" fill="#fff" opacity="0.85"/>
  <rect x="28" y="10" width="6" height="2" rx="1" fill="#fff" opacity="0.85"/>
  <rect x="10" y="30" width="6" height="2" rx="1" fill="#fff" opacity="0.85"/>
  <rect x="28" y="24" width="6" height="2" rx="1" fill="#fff" opacity="0.85"/>
</svg>
