<svg xmlns="http://www.w3.org/2000/svg" viewBox="0 0 48 48">
  <defs>
    <linearGradient id="pen-g" x1="6" y1="38" x2="42" y2="6" gradientUnits="userSpaceOnUse">
      <stop offset="0%" stop-color="#00f5ff"/>
      <stop offset="45%" stop-color="#ffea00"/>
      <stop offset="100%" stop-color="#ff9500"/>
    </linearGradient>
    <filter id="pen-glow" x="-50%" y="-50%" width="200%" height="200%">
      <feGaussianBlur stdDeviation="2.5" result="b"/>
      <feMerge><feMergeNode in="b"/><feMergeNode in="SourceGraphic"/></feMerge>
    </filter>
  </defs>
  <path fill="#00f5ff" opacity="0.22" d="M30 6l14 14-20 20-8-8L30 6z"/>
  <path fill="url(#pen-g)" filter="url(#pen-glow)" d="M32 8l8 8-18 18-8-2 2-8L32 8z"/>
  <path fill="none" stroke="#fff7cc" stroke-width="1" opacity="0.75" d="M32 8l8 8-18 18-8-2 2-8L32 8z"/>
  <path fill="#ffea00" d="M36 12l4 4-2 2-4-4 2-2z"/>
  <path fill="#00f5ff" opacity="0.5" d="M14 32l2 6 6 2-8-8z"/>
  <rect x="8" y="38" width="28" height="3" rx="1.5" fill="#00f5ff" filter="url(#pen-glow)"/>
</svg>
