<svg xmlns="http://www.w3.org/2000/svg" viewBox="0 0 48 48">
  <defs>
    <linearGradient id="gem-g" x1="24" y1="6" x2="24" y2="42" gradientUnits="userSpaceOnUse">
      <stop offset="0%" stop-color="#00f5ff"/>
      <stop offset="45%" stop-color="#22d3ee"/>
      <stop offset="100%" stop-color="#c084fc"/>
    </linearGradient>
    <filter id="gem-glow" x="-50%" y="-50%" width="200%" height="200%">
      <feGaussianBlur stdDeviation="2.8" result="b"/>
      <feMerge><feMergeNode in="b"/><feMergeNode in="SourceGraphic"/></feMerge>
    </filter>
  </defs>
  <path fill="#00f5ff" opacity="0.28" d="M24 6l8 14 14 4-10 10 3 14-15-8-15 8 3-14-10-10 14-4 8-14z"/>
  <path fill="url(#gem-g)" filter="url(#gem-glow)" d="M24 8l6.5 11.5L41 22l-9 8.5 2.5 13.5L24 36l-10.5 8 2.5-13.5-9-8.5 10.5-2.5L24 8z"/>
  <path fill="none" stroke="#a5f3fc" stroke-width="1" opacity="0.7" d="M24 8l6.5 11.5L41 22l-9 8.5 2.5 13.5L24 36l-10.5 8 2.5-13.5-9-8.5 10.5-2.5L24 8z"/>
  <path fill="#fff" d="M24 14l3.5 6.5L33 21l-5.5 5 1.5 7.5L24 30l-5 3.5 1.5-7.5L15 21l5.5-.5L24 14z" opacity="0.45"/>
  <circle cx="24" cy="22" r="3.5" fill="#fff" opacity="0.95"/>
</svg>
