<svg xmlns="http://www.w3.org/2000/svg" viewBox="0 0 48 48">
  <defs>
    <linearGradient id="inbox-g" x1="6" y1="14" x2="42" y2="40" gradientUnits="userSpaceOnUse">
      <stop offset="0%" stop-color="#e879f9"/>
      <stop offset="100%" stop-color="#a855f7"/>
    </linearGradient>
    <filter id="inbox-glow" x="-50%" y="-50%" width="200%" height="200%">
      <feGaussianBlur stdDeviation="2.2" result="b"/>
      <feMerge><feMergeNode in="b"/><feMergeNode in="SourceGraphic"/></feMerge>
    </filter>
  </defs>
  <path fill="#bf00ff" opacity="0.22" d="M6 16l8-8h20l8 8v20a4 4 0 01-4 4H10a4 4 0 01-4-4V16z"/>
  <path fill="url(#inbox-g)" filter="url(#inbox-glow)" d="M8 18l6-6h20l6 6v16a2 2 0 01-2 2H10a2 2 0 01-2-2V18z"/>
  <path fill="#7c3aed" d="M8 18h32l-8 10H16L8 18z"/>
  <path fill="none" stroke="#f0abfc" stroke-width="1" opacity="0.6" d="M8 18h32l-8 10H16L8 18z"/>
  <rect x="20" y="24" width="8" height="6" rx="1.5" fill="#faf5ff"/>
</svg>
