<svg xmlns="http://www.w3.org/2000/svg" viewBox="0 0 48 48">
  <defs>
    <linearGradient id="lock-g" x1="14" y1="8" x2="34" y2="38" gradientUnits="userSpaceOnUse">
      <stop offset="0%" stop-color="#e879f9"/>
      <stop offset="100%" stop-color="#7c3aed"/>
    </linearGradient>
    <filter id="lock-glow" x="-50%" y="-50%" width="200%" height="200%">
      <feGaussianBlur stdDeviation="2.2" result="b"/>
      <feMerge><feMergeNode in="b"/><feMergeNode in="SourceGraphic"/></feMerge>
    </filter>
  </defs>
  <circle cx="24" cy="24" r="16" fill="#bf00ff" opacity="0.15"/>
  <path fill="url(#lock-g)" filter="url(#lock-glow)" d="M24 8c-4.4 0-8 3.1-8 7v5h16v-5c0-3.9-3.6-7-8-7z"/>
  <rect x="14" y="20" width="20" height="18" rx="4" fill="#9333ea" filter="url(#lock-glow)"/>
  <rect x="16" y="22" width="16" height="14" rx="3" fill="#a855f7"/>
  <path fill="none" stroke="#f0abfc" stroke-width="1" opacity="0.65" d="M14 20h20v18a4 4 0 01-4 4H18a4 4 0 01-4-4V20z"/>
  <circle cx="24" cy="29" r="3.5" fill="#faf5ff"/>
  <rect x="22.5" y="29" width="3" height="5" rx="1.5" fill="#581c87"/>
</svg>
