<svg xmlns="http://www.w3.org/2000/svg" viewBox="0 0 48 48">
  <defs>
    <linearGradient id="logout-g" x1="8" y1="8" x2="40" y2="40" gradientUnits="userSpaceOnUse">
      <stop offset="0%" stop-color="#ff6b6b"/>
      <stop offset="100%" stop-color="#ff2d55"/>
    </linearGradient>
    <filter id="logout-glow" x="-50%" y="-50%" width="200%" height="200%">
      <feGaussianBlur stdDeviation="2.2" result="b"/>
      <feMerge><feMergeNode in="b"/><feMergeNode in="SourceGraphic"/></feMerge>
    </filter>
  </defs>
  <circle cx="36" cy="24" r="12" fill="#ff2d55" opacity="0.2"/>
  <path fill="url(#logout-g)" filter="url(#logout-glow)" d="M10 8h12a2 2 0 012 2v28a2 2 0 01-2 2H10a2 2 0 01-2-2V10a2 2 0 012-2z"/>
  <path fill="none" stroke="#fecaca" stroke-width="1" opacity="0.65" d="M10 8h12a2 2 0 012 2v28a2 2 0 01-2 2H10a2 2 0 01-2-2V10a2 2 0 012-2z"/>
  <rect x="14" y="14" width="8" height="2" rx="1" fill="#fff" opacity="0.8"/>
  <rect x="14" y="20" width="8" height="2" rx="1" fill="#fff" opacity="0.45"/>
  <path fill="none" stroke="#00f5ff" stroke-width="3" stroke-linecap="round" stroke-linejoin="round" filter="url(#logout-glow)" d="M26 24h12M34 18l6 6-6 6"/>
</svg>
