<svg xmlns="http://www.w3.org/2000/svg" viewBox="0 0 48 48">
  <defs>
    <linearGradient id="sparkle-g" x1="24" y1="4" x2="24" y2="44" gradientUnits="userSpaceOnUse">
      <stop offset="0%" stop-color="#ff6bf0"/>
      <stop offset="50%" stop-color="#d946ef"/>
      <stop offset="100%" stop-color="#a855f7"/>
    </linearGradient>
    <filter id="sparkle-glow" x="-50%" y="-50%" width="200%" height="200%">
      <feGaussianBlur stdDeviation="2.5" result="b"/>
      <feMerge><feMergeNode in="b"/><feMergeNode in="SourceGraphic"/></feMerge>
    </filter>
  </defs>
  <path fill="#d946ef" opacity="0.28" d="M24 4l4 12 12 4-12 4-4 12-4-12-12-4 12-4 4-12z"/>
  <path fill="url(#sparkle-g)" filter="url(#sparkle-glow)" d="M24 8l3 9 9 3-9 3-3 9-3-9-9-3 9-3 3-9z"/>
  <path fill="none" stroke="#f5d0fe" stroke-width="1" opacity="0.75" d="M24 8l3 9 9 3-9 3-3 9-3-9-9-3 9-3 3-9z"/>
  <path fill="#00f5ff" filter="url(#sparkle-glow)" d="M38 26l2 5 5 2-5 2-2 5-2-5-5-2 5-2 2-5z"/>
  <path fill="#00f5ff" opacity="0.9" d="M10 30l1.5 4 4 1.5-4 1.5-1.5 4-1.5-4-4-1.5 4-1.5 1.5-4z"/>
</svg>
